<svg xmlns="http://www.w3.org/2000/svg" viewBox="0 0 24 24">    <path d="M19,3h-4.184C14.403,1.837,13.304,1,12,1S9.597,1.837,9.184,3H5C3.895,3,3,3.895,3,5v14c0,1.105,0.895,2,2,2h14 c1.105,0,2-0.895,2-2V5C21,3.895,20.105,3,19,3z M8.707,11.293L11,13.586l4.293-4.293c0.39-0.39,1.024-0.39,1.414,0l0,0 c0.39,0.39,0.39,1.024,0,1.414l-5,5c-0.39,0.39-1.024,0.39-1.414,0l-3-3c-0.39-0.39-0.39-1.024,0-1.414l0,0 C7.683,10.902,8.316,10.902,8.707,11.293z M12,3c0.552,0,1,0.448,1,1c0,0.552-0.448,1-1,1s-1-0.448-1-1C11,3.448,11.448,3,12,3z"></path></svg>