<svg xmlns="http://www.w3.org/2000/svg" viewBox="0 0 24 24">    <path d="M 12 1 C 10.696 1 9.5965937 1.837 9.1835938 3 L 5 3 C 3.895 3 3 3.895 3 5 L 3 19 C 3 20.105 3.895 21 5 21 L 19 21 C 20.105 21 21 20.105 21 19 L 21 5 C 21 3.895 20.105 3 19 3 L 14.816406 3 C 14.403406 1.837 13.304 1 12 1 z M 12 3 C 12.552 3 13 3.448 13 4 C 13 4.552 12.552 5 12 5 L 19 5 L 19 19 L 5 19 L 5 5 L 12 5 C 11.448 5 11 4.552 11 4 C 11 3.448 11.448 3 12 3 z M 15.292969 8.2929688 L 11 12.585938 L 8.7070312 10.292969 L 7.2929688 11.707031 L 11 15.414062 L 16.707031 9.7070312 L 15.292969 8.2929688 z"></path></svg>