<?xml version="1.0" encoding="utf-8"?>
<svg xml:space="preserve" width="512" height="412"  style="enable-background:new 0 0 412 412" xmlns="http://www.w3.org/2000/svg">
  <path d="M 483.393 349.84 C 483.393 335.464 470.757 323.81 455.171 323.81 L 256.212 323.81 C 240.626 323.81 227.992 335.464 227.992 349.84 C 227.992 364.214 240.626 375.866 256.212 375.866 L 455.171 375.866 C 470.757 375.866 483.393 364.214 483.393 349.84 Z M 384.62 249.631 C 384.62 235.256 371.983 223.603 356.397 223.603 L 92.529 223.603 C 76.944 223.603 64.308 235.256 64.308 249.631 C 64.308 264.006 76.944 275.659 92.529 275.659 L 356.397 275.659 C 371.983 275.659 384.62 264.006 384.62 249.631 Z M 182.837 148.122 C 182.837 133.746 170.202 122.094 154.614 122.094 L 36.086 122.094 C 20.501 122.094 7.867 133.746 7.867 148.122 C 7.867 162.497 20.501 174.149 36.086 174.149 L 154.614 174.149 C 170.202 174.149 182.837 162.497 182.837 148.122 Z" style=""/>
</svg>