<?xml version="1.0" encoding="utf-8"?>
<svg viewBox="0 0 500 500" width="500" height="500" xmlns="http://www.w3.org/2000/svg">
  <g transform="matrix(1, 0, 0, 1, 5.979019, 7.941095)">
    <path d="M 217.017 0 L 14.707 0 C 5.577 0 -1.807 7.387 -1.807 16.514 L -1.807 469.844 C -1.807 478.973 5.577 486.36 14.708 486.36 L 217.018 486.36 C 226.148 486.36 233.537 478.973 233.537 469.844 L 233.537 16.514 C 233.536 7.387 226.147 0 217.017 0 Z M 200.502 453.328 L 31.223 453.328 L 31.223 33.029 L 200.502 33.029 L 200.502 453.328 Z"/>
    <path d="M 473.335 1.121 L 287.683 1.121 C 278.571 1.121 271.168 8.508 271.168 17.635 L 271.168 213.754 C 271.168 222.881 278.571 230.268 287.683 230.268 L 473.335 230.268 C 482.46 230.268 489.85 222.881 489.85 213.754 L 489.85 17.635 C 489.85 8.508 482.46 1.121 473.335 1.121 Z M 456.82 197.238 L 304.198 197.238 L 304.198 34.15 L 456.82 34.15 L 456.82 197.238 Z"/>
  </g>
</svg>