<svg id="Layer_1" enable-background="new 0 0 511.771 511.771" height="512" viewBox="0 0 511.771 511.771" width="512" xmlns="http://www.w3.org/2000/svg"><g style="fill:none;stroke:rgb(0,0,0);stroke-width:30;stroke-linecap:round;stroke-linejoin:round;stroke-miterlimit:10"><path d="m218.116 271.21-163.45-88.83c-5.461-2.968-12.109.986-12.109 7.201v206.062c0 2.947 1.583 5.668 4.145 7.125l163.451 92.921c5.463 3.106 12.246-.84 12.246-7.125v-210.154c-.001-3.003-1.644-5.766-4.283-7.2z"/><path d="m435.131 108.323-178.238-92.403c-2.381-1.234-5.215-1.226-7.588.023l-175.611 92.404c-5.83 3.068-5.841 11.412-.018 14.495l175.611 92.979c2.383 1.262 5.234 1.27 7.625.023l178.239-92.979c5.881-3.068 5.87-11.488-.02-14.542z"/><path d="m457.105 182.38-163.451 88.83c-2.639 1.434-4.282 4.197-4.282 7.201v210.153c0 6.285 6.782 10.23 12.245 7.125l163.451-92.921c2.562-1.457 4.145-4.177 4.145-7.125v-206.062c.001-6.215-6.647-10.169-12.108-7.201z"/></g></svg>