<svg xmlns="http://www.w3.org/2000/svg" viewBox="0 0 50 50"><path d="M 25.347656 2.0078125 L 25.298828 4.0078125 L 26.056641 4.0253906 L 26.070312 4.0273438 L 27.162109 4.1113281 L 27.173828 4.1113281 L 28.199219 4.2421875 L 29.208984 4.421875 L 29.228516 4.4257812 L 30.046875 4.6152344 L 30.496094 2.6660156 L 29.658203 2.4726562 L 29.634766 2.4667969 L 29.609375 2.4628906 L 28.525391 2.2695312 L 28.501953 2.2636719 L 28.476562 2.2617188 L 27.375 2.1210938 L 27.349609 2.1191406 L 27.324219 2.1171875 L 26.207031 2.03125 L 26.183594 2.0292969 L 26.158203 2.0292969 L 25.347656 2.0078125 z M 22.205078 2.1757812 L 21.523438 2.2617188 L 21.498047 2.2636719 L 21.474609 2.2695312 L 20.390625 2.4628906 L 20.365234 2.4667969 L 20.341797 2.4726562 L 19.277344 2.71875 L 19.251953 2.7246094 L 19.228516 2.7304688 L 18.185547 3.0273438 L 18.160156 3.0332031 L 18.136719 3.0410156 L 17.15625 3.3730469 L 17.796875 5.2675781 L 18.730469 4.9511719 L 18.746094 4.9472656 L 19.726562 4.6679688 L 19.730469 4.6679688 L 20.771484 4.4257812 L 20.791016 4.421875 L 21.800781 4.2421875 L 22.457031 4.1582031 L 22.205078 2.1757812 z M 33.492188 3.625 L 32.757812 5.4863281 L 33.152344 5.640625 L 34.117188 6.0761719 L 34.125 6.0800781 L 34.988281 6.5214844 L 35.009766 6.5351562 L 35.03125 6.5449219 L 35.867188 7.0273438 L 35.876953 7.0332031 L 36.755859 7.5957031 L 36.759766 7.5996094 L 36.941406 7.7285156 L 38.101562 6.0996094 L 37.880859 5.9414062 L 37.859375 5.9277344 L 37.839844 5.9160156 L 36.947266 5.34375 L 36.927734 5.3300781 L 36.90625 5.3183594 L 35.984375 4.7890625 L 35.964844 4.7753906 L 35.941406 4.765625 L 34.994141 4.2792969 L 34.972656 4.2675781 L 34.949219 4.2578125 L 33.974609 3.8183594 L 33.953125 3.8066406 L 33.929688 3.7988281 L 33.492188 3.625 z M 14.283203 4.6503906 L 14.058594 4.765625 L 14.035156 4.7753906 L 14.015625 4.7890625 L 13.09375 5.3183594 L 13.072266 5.3300781 L 13.052734 5.34375 L 12.160156 5.9160156 L 12.140625 5.9277344 L 12.119141 5.9414062 L 11.257812 6.5566406 L 11.238281 6.5703125 L 11.21875 6.5839844 L 10.388672 7.2382812 L 10.369141 7.2519531 L 10.351562 7.2675781 L 9.9667969 7.6015625 L 11.275391 9.1132812 L 11.623047 8.8105469 L 11.634766 8.8007812 L 12.416016 8.1855469 L 12.435547 8.171875 L 12.455078 8.15625 L 13.240234 7.5996094 L 13.246094 7.5957031 L 14.123047 7.0332031 L 14.132812 7.0273438 L 14.96875 6.5449219 L 14.990234 6.5332031 L 15.011719 6.5214844 L 15.193359 6.4296875 L 14.283203 4.6503906 z M 40.554688 8.0605469 L 39.173828 9.5078125 L 39.832031 10.132812 L 39.849609 10.150391 L 39.867188 10.167969 L 40.552734 10.888672 L 40.560547 10.898438 L 41.189453 11.623047 L 41.199219 11.634766 L 41.814453 12.416016 L 41.828125 12.435547 L 41.84375 12.455078 L 42.322266 13.128906 L 43.951172 11.970703 L 43.443359 11.257812 L 43.429688 11.238281 L 43.416016 11.21875 L 42.761719 10.388672 L 42.748047 10.369141 L 42.732422 10.351562 L 42.041016 9.5527344 L 42.025391 9.5351562 L 42.007812 9.5175781 L 41.279297 8.7539062 L 41.263672 8.7363281 L 41.246094 8.7207031 L 40.554688 8.0605469 z M 7.7363281 9.8105469 L 7.2675781 10.351562 L 7.2519531 10.369141 L 7.2382812 10.388672 L 6.5839844 11.21875 L 6.5703125 11.238281 L 6.5566406 11.257812 L 5.9414062 12.119141 L 5.9277344 12.140625 L 5.9160156 12.160156 L 5.34375 13.052734 L 5.3300781 13.072266 L 5.3183594 13.09375 L 4.7890625 14.015625 L 4.7753906 14.035156 L 4.765625 14.058594 L 4.7441406 14.099609 L 6.5058594 15.001953 L 6.5214844 15.011719 L 6.5234375 15.011719 L 6.5371094 14.986328 L 6.5449219 14.96875 L 7.0273438 14.132812 L 7.0332031 14.123047 L 7.5957031 13.246094 L 7.5996094 13.240234 L 8.15625 12.455078 L 8.171875 12.435547 L 8.1855469 12.416016 L 8.8007812 11.634766 L 8.8105469 11.623047 L 9.2480469 11.121094 L 7.7363281 9.8105469 z M 45.550781 14.675781 L 43.771484 15.585938 L 43.919922 15.875 L 43.923828 15.882812 L 44.359375 16.847656 L 44.734375 17.802734 L 45.048828 18.730469 L 45.052734 18.746094 L 45.332031 19.726562 L 45.332031 19.730469 L 45.404297 20.039062 L 47.353516 19.589844 L 47.28125 19.277344 L 47.275391 19.251953 L 47.269531 19.228516 L 46.972656 18.185547 L 46.966797 18.160156 L 46.958984 18.136719 L 46.611328 17.115234 L 46.603516 17.091797 L 46.595703 17.068359 L 46.201172 16.070312 L 46.193359 16.046875 L 46.181641 16.025391 L 45.742188 15.050781 L 45.732422 15.027344 L 45.720703 15.005859 L 45.550781 14.675781 z M 3.4648438 16.917969 L 3.4042969 17.068359 L 3.3964844 17.091797 L 3.3886719 17.115234 L 3.0410156 18.136719 L 3.0332031 18.160156 L 3.0273438 18.185547 L 2.7304688 19.228516 L 2.7246094 19.251953 L 2.71875 19.277344 L 2.4726562 20.341797 L 2.4667969 20.365234 L 2.4628906 20.390625 L 2.2695312 21.474609 L 2.2636719 21.498047 L 2.2617188 21.523438 L 2.2011719 22 L 4.1855469 22.251953 L 4.2421875 21.798828 L 4.421875 20.791016 L 4.4257812 20.771484 L 4.6679688 19.730469 L 4.6679688 19.726562 L 4.9472656 18.746094 L 4.9511719 18.730469 L 5.265625 17.802734 L 5.3242188 17.652344 L 3.4648438 16.917969 z M 47.884766 22.691406 L 45.890625 22.84375 L 45.972656 23.929688 L 45.974609 23.943359 L 46 25 L 45.974609 26.056641 L 45.972656 26.070312 L 45.888672 27.162109 L 45.888672 27.173828 L 45.757812 28.199219 L 45.578125 29.208984 L 45.574219 29.228516 L 45.457031 29.732422 L 47.40625 30.181641 L 47.527344 29.658203 L 47.533203 29.634766 L 47.537109 29.609375 L 47.730469 28.525391 L 47.736328 28.501953 L 47.738281 28.476562 L 47.878906 27.375 L 47.880859 27.349609 L 47.882812 27.324219 L 47.96875 26.207031 L 47.970703 26.183594 L 47.970703 26.158203 L 48 25.025391 L 47 25 L 48 24.974609 L 47.970703 23.841797 L 47.970703 23.816406 L 47.96875 23.792969 L 47.884766 22.691406 z M 4.0019531 25.091797 L 2.0039062 25.142578 L 2.0292969 26.158203 L 2.0292969 26.183594 L 2.03125 26.207031 L 2.1171875 27.324219 L 2.1191406 27.349609 L 2.1210938 27.375 L 2.2617188 28.476562 L 2.2636719 28.501953 L 2.2695312 28.525391 L 2.4628906 29.609375 L 2.4667969 29.634766 L 2.4726562 29.658203 L 2.6191406 30.296875 L 4.5683594 29.845703 L 4.4257812 29.228516 L 4.421875 29.208984 L 4.2421875 28.199219 L 4.1113281 27.173828 L 4.1113281 27.162109 L 4.0273438 26.070312 L 4.0253906 26.056641 L 4.0019531 25.091797 z M 44.632812 32.457031 L 44.359375 33.152344 L 43.923828 34.117188 L 43.919922 34.125 L 43.478516 34.988281 L 43.464844 35.009766 L 43.455078 35.03125 L 42.972656 35.867188 L 42.966797 35.876953 L 42.429688 36.716797 L 44.113281 37.796875 L 44.65625 36.947266 L 44.669922 36.927734 L 44.681641 36.90625 L 45.210938 35.984375 L 45.224609 35.964844 L 45.234375 35.941406 L 45.720703 34.994141 L 45.732422 34.972656 L 45.742188 34.949219 L 46.181641 33.974609 L 46.193359 33.953125 L 46.201172 33.929688 L 46.492188 33.191406 L 44.632812 32.457031 z M 5.4101562 32.568359 L 3.5507812 33.300781 L 3.7988281 33.929688 L 3.8066406 33.953125 L 3.8183594 33.974609 L 4.2578125 34.949219 L 4.2675781 34.972656 L 4.2792969 34.994141 L 4.765625 35.941406 L 4.7753906 35.964844 L 4.7890625 35.984375 L 5.3183594 36.90625 L 5.3300781 36.927734 L 5.34375 36.947266 L 5.9160156 37.839844 L 5.9277344 37.859375 L 5.9414062 37.880859 L 5.9804688 37.933594 L 7.609375 36.773438 L 7.5996094 36.759766 L 7.5976562 36.757812 L 7.0332031 35.876953 L 7.0273438 35.867188 L 6.5449219 35.03125 L 6.5351562 35.009766 L 6.5214844 34.988281 L 6.0800781 34.125 L 6.0761719 34.117188 L 5.640625 33.152344 L 5.4101562 32.568359 z M 40.675781 38.96875 L 40.560547 39.101562 L 40.552734 39.109375 L 39.867188 39.832031 L 39.849609 39.849609 L 39.832031 39.867188 L 39.111328 40.552734 L 39.101562 40.560547 L 38.376953 41.189453 L 38.365234 41.199219 L 37.583984 41.814453 L 37.564453 41.828125 L 37.544922 41.84375 L 37.132812 42.134766 L 38.292969 43.763672 L 38.742188 43.443359 L 38.761719 43.429688 L 38.78125 43.416016 L 39.611328 42.761719 L 39.630859 42.748047 L 39.648438 42.732422 L 40.447266 42.041016 L 40.464844 42.025391 L 40.482422 42.007812 L 41.246094 41.279297 L 41.263672 41.263672 L 41.279297 41.246094 L 42.007812 40.482422 L 42.025391 40.464844 L 42.041016 40.447266 L 42.1875 40.277344 L 40.675781 38.96875 z M 9.4023438 39.056641 L 7.890625 40.367188 L 7.9589844 40.447266 L 7.9746094 40.464844 L 7.9921875 40.482422 L 8.7207031 41.246094 L 8.7363281 41.263672 L 8.7539062 41.279297 L 9.5175781 42.007812 L 9.5351562 42.025391 L 9.5527344 42.041016 L 10.351562 42.732422 L 10.369141 42.748047 L 10.388672 42.761719 L 11.21875 43.416016 L 11.238281 43.429688 L 11.257812 43.443359 L 11.802734 43.832031 L 12.962891 42.203125 L 12.455078 41.84375 L 12.435547 41.828125 L 12.416016 41.814453 L 11.634766 41.199219 L 11.623047 41.189453 L 10.898438 40.560547 L 10.888672 40.552734 L 10.167969 39.867188 L 10.150391 39.849609 L 10.132812 39.832031 L 9.4511719 39.113281 L 9.4394531 39.101562 L 9.4023438 39.056641 z M 34.701172 43.623047 L 34.125 43.919922 L 34.115234 43.923828 L 33.152344 44.359375 L 32.197266 44.734375 L 31.269531 45.048828 L 31.253906 45.052734 L 30.228516 45.34375 L 30.773438 47.267578 L 31.814453 46.972656 L 31.839844 46.966797 L 31.863281 46.958984 L 32.884766 46.611328 L 32.908203 46.603516 L 32.931641 46.595703 L 33.929688 46.201172 L 33.953125 46.193359 L 33.974609 46.181641 L 34.949219 45.742188 L 34.972656 45.732422 L 34.994141 45.720703 L 35.613281 45.404297 L 34.701172 43.623047 z M 15.404297 43.677734 L 14.492188 45.457031 L 15.005859 45.720703 L 15.027344 45.732422 L 15.050781 45.742188 L 16.025391 46.181641 L 16.046875 46.193359 L 16.070312 46.201172 L 17.068359 46.595703 L 17.091797 46.603516 L 17.115234 46.611328 L 18.136719 46.958984 L 18.160156 46.966797 L 18.185547 46.972656 L 19.228516 47.269531 L 19.251953 47.275391 L 19.277344 47.28125 L 19.388672 47.306641 L 19.837891 45.359375 L 19.732422 45.333984 L 19.726562 45.332031 L 18.746094 45.052734 L 18.730469 45.048828 L 17.802734 44.734375 L 16.847656 44.359375 L 15.884766 43.923828 L 15.875 43.919922 L 15.404297 43.677734 z M 27.427734 45.855469 L 27.173828 45.888672 L 27.160156 45.890625 L 26.070312 45.972656 L 26.056641 45.974609 L 25 46 L 23.943359 45.974609 L 23.929688 45.972656 L 22.835938 45.888672 L 22.826172 45.888672 L 22.689453 45.871094 L 22.4375 47.855469 L 22.625 47.878906 L 22.650391 47.880859 L 22.675781 47.882812 L 23.792969 47.96875 L 23.816406 47.970703 L 23.841797 47.970703 L 24.974609 48 L 25 48 L 25.025391 48 L 26.158203 47.970703 L 26.183594 47.970703 L 26.207031 47.96875 L 27.324219 47.882812 L 27.349609 47.880859 L 27.375 47.878906 L 27.679688 47.839844 L 27.427734 45.855469 z"></path></svg>