<svg version="1.1" xmlns="http://www.w3.org/2000/svg" xmlns:xlink="http://www.w3.org/1999/xlink" viewBox="0 0 172 172"><g fill="none" fill-rule="nonzero" stroke="none" stroke-width="1" stroke-linecap="butt" stroke-linejoin="miter" stroke-miterlimit="10" stroke-dasharray="" stroke-dashoffset="0" font-family="none" style="mix-blend-mode: normal"><path d="M0,172v-172h172v172z" ></path><path d="M87.19594,6.90688l-0.16797,6.88l2.60688,0.06047l0.04703,0.00672l3.75578,0.28891h0.04031l3.52735,0.45016l3.47359,0.61812l0.06719,0.01344l2.81515,0.65172l1.54531,-6.70531l-2.88235,-0.66516l-0.08062,-0.02016l-0.08735,-0.01344l-3.7289,-0.66516l-0.08063,-0.02016l-0.08735,-0.00672l-3.78937,-0.48375l-0.08735,-0.00672l-0.08734,-0.00672l-3.84313,-0.29563l-0.08062,-0.00672h-0.08735zM76.38547,7.48469l-2.34484,0.29563l-0.08735,0.00672l-0.08063,0.02016l-3.7289,0.66516l-0.08735,0.01344l-0.08062,0.02016l-3.66172,0.84656l-0.08735,0.02016l-0.08062,0.02016l-3.58781,1.02125l-0.08735,0.02016l-0.08062,0.02687l-3.37281,1.14219l2.20375,6.51719l3.21156,-1.08844l0.05375,-0.01344l3.37281,-0.96078h0.01344l3.58109,-0.83313l0.06719,-0.01344l3.47359,-0.61812l2.2575,-0.28891zM115.21313,12.47l-2.52625,6.40297l1.35719,0.53078l3.31906,1.49828l0.02687,0.01344l2.96969,1.51844l0.07391,0.04703l0.0739,0.03359l2.87563,1.65953l0.03359,0.02016l3.02344,1.935l0.01344,0.01344l0.62484,0.44344l3.99094,-5.60344l-0.75922,-0.54422l-0.0739,-0.04703l-0.06719,-0.04031l-3.07047,-1.96859l-0.06719,-0.04703l-0.0739,-0.04031l-3.17125,-1.82078l-0.06719,-0.04703l-0.08063,-0.03359l-3.25859,-1.67297l-0.07391,-0.04031l-0.08062,-0.03359l-3.35266,-1.51172l-0.0739,-0.04031l-0.08062,-0.02688zM49.13422,15.99734l-0.77265,0.39641l-0.08063,0.03359l-0.06719,0.04703l-3.17125,1.82078l-0.0739,0.04031l-0.06719,0.04703l-3.07047,1.96859l-0.06719,0.04031l-0.0739,0.04703l-2.96297,2.11641l-0.06719,0.04703l-0.06719,0.04703l-2.85547,2.25078l-0.06719,0.04703l-0.06047,0.05375l-1.32359,1.14891l4.50156,5.20031l1.19594,-1.04141l0.04031,-0.03359l2.6875,-2.11641l0.06719,-0.04703l0.06719,-0.05375l2.70094,-1.91484l0.02016,-0.01344l3.01672,-1.935l0.03359,-0.02016l2.87563,-1.65953l0.0739,-0.04031l0.07391,-0.04031l0.62484,-0.31578zM139.50813,27.72828l-4.75016,4.97859l2.26422,2.15l0.06047,0.06047l0.06047,0.06047l2.35828,2.47922l0.02688,0.0336l2.16344,2.49265l0.0336,0.04031l2.1164,2.6875l0.04703,0.06719l0.05375,0.06719l1.6461,2.31797l5.60344,-3.98422l-1.74688,-2.45235l-0.04703,-0.06719l-0.04703,-0.06719l-2.25078,-2.85547l-0.04703,-0.06719l-0.05375,-0.06047l-2.37844,-2.74797l-0.05375,-0.06047l-0.06047,-0.06047l-2.50609,-2.62703l-0.05375,-0.06047l-0.06047,-0.05375zM26.61297,33.74828l-1.6125,1.86109l-0.05375,0.06047l-0.04703,0.06719l-2.25078,2.85547l-0.04703,0.06719l-0.04703,0.06719l-2.11641,2.96297l-0.04703,0.0739l-0.04031,0.06719l-1.96859,3.07047l-0.04703,0.06719l-0.04031,0.0739l-1.82078,3.17125l-0.04703,0.06719l-0.03359,0.08063l-0.07391,0.14109l6.06031,3.10406l0.05375,0.0336h0.00672l0.04703,-0.08735l0.02688,-0.06047l1.65953,-2.87563l0.02016,-0.03359l1.935,-3.01672l0.01344,-0.02016l1.91484,-2.70094l0.05375,-0.06719l0.04703,-0.06719l2.11641,-2.6875l0.03359,-0.04031l1.505,-1.72672zM156.69469,50.48469l-6.12078,3.13094l0.51063,0.99437l0.01344,0.02687l1.49828,3.31906l1.29,3.28547l1.08172,3.19141l0.01344,0.05375l0.96078,3.37281v0.01344l0.2486,1.06156l6.70531,-1.54531l-0.2486,-1.075l-0.02015,-0.08735l-0.02016,-0.08062l-1.02125,-3.58781l-0.02015,-0.08735l-0.02688,-0.08062l-1.19594,-3.51391l-0.02687,-0.08062l-0.02688,-0.08063l-1.35719,-3.43328l-0.02688,-0.08062l-0.04031,-0.0739l-1.51172,-3.35266l-0.0336,-0.08062l-0.04031,-0.07391zM11.91906,58.19781l-0.20828,0.51734l-0.02688,0.08063l-0.02688,0.08062l-1.19594,3.51391l-0.02687,0.08062l-0.02016,0.08735l-1.02125,3.58781l-0.02016,0.08062l-0.02016,0.08735l-0.84656,3.66172l-0.02016,0.08062l-0.01344,0.08735l-0.66516,3.7289l-0.02016,0.08063l-0.00672,0.08735l-0.20828,1.63937l6.82625,0.86672l0.19484,-1.55875l0.61812,-3.46687l0.01344,-0.06719l0.83313,-3.58109v-0.01344l0.96078,-3.37281l0.01344,-0.05375l1.08172,-3.19141l0.20156,-0.51734zM164.7236,78.05844l-6.85985,0.52406l0.28219,3.73563l0.00672,0.04703l0.08735,3.63485l-0.08735,3.63485l-0.00672,0.04703l-0.2889,3.75578v0.04031l-0.45016,3.52735l-0.61812,3.47359l-0.01344,0.06719l-0.40313,1.73344l6.70531,1.54531l0.41656,-1.80063l0.02015,-0.08062l0.01344,-0.08735l0.66516,-3.7289l0.02015,-0.08063l0.00672,-0.08735l0.48375,-3.78937l0.00672,-0.08735l0.00672,-0.08734l0.29563,-3.84313l0.00672,-0.08062v-0.08735l0.10078,-3.89687l-3.44,-0.08735l3.44,-0.08735l-0.10078,-3.89687v-0.08735l-0.00672,-0.08062zM13.76672,86.31578l-6.87328,0.17469l0.08734,3.49375v0.08735l0.00672,0.08062l0.29563,3.84313l0.00672,0.08734l0.00672,0.08735l0.48375,3.78937l0.00672,0.08735l0.02016,0.08063l0.66516,3.7289l0.01344,0.08735l0.02016,0.08062l0.50391,2.19703l6.70531,-1.55203l-0.49047,-2.12312l-0.01344,-0.06719l-0.61812,-3.47359l-0.45016,-3.52735v-0.04031l-0.28891,-3.75578l-0.00672,-0.04703zM153.53687,111.65219l-0.94062,2.39188l-1.49828,3.31906l-0.01344,0.02687l-1.51844,2.96969l-0.04703,0.07391l-0.0336,0.0739l-1.65953,2.87563l-0.02015,0.03359l-1.84765,2.88906l5.79156,3.71547l1.86781,-2.92265l0.04703,-0.06719l0.04031,-0.0739l1.82078,-3.17125l0.04703,-0.06719l0.0336,-0.08063l1.67297,-3.25859l0.04031,-0.07391l0.0336,-0.08062l1.51172,-3.35266l0.04031,-0.0739l0.02688,-0.08062l1.0011,-2.53969zM18.61094,112.03515l-6.39625,2.51953l0.85328,2.16344l0.02688,0.08062l0.04031,0.0739l1.51172,3.35266l0.03359,0.08062l0.04031,0.07391l1.67297,3.25859l0.03359,0.08063l0.04703,0.06719l1.82078,3.17125l0.04031,0.0739l0.04703,0.06719l1.96859,3.07047l0.04031,0.06719l0.04703,0.0739l0.13438,0.18141l5.60344,-3.99094l-0.03359,-0.04703l-0.00672,-0.00672l-1.94172,-3.03015l-0.02016,-0.03359l-1.65953,-2.87563l-0.03359,-0.0739l-0.04703,-0.07391l-1.51844,-2.96969l-0.01344,-0.02687l-1.49828,-3.31906zM139.92469,134.0525l-0.3964,0.45687l-0.02688,0.02688l-2.35828,2.48594l-0.06047,0.06047l-0.06047,0.06047l-2.47922,2.35828l-0.0336,0.02688l-2.49265,2.16344l-0.04031,0.0336l-2.6875,2.1164l-0.06719,0.04703l-0.06719,0.05375l-1.41766,1.0011l3.99094,5.60344l1.54531,-1.10188l0.06719,-0.04703l0.06719,-0.04703l2.85547,-2.25078l0.06719,-0.04703l0.06047,-0.05375l2.74797,-2.37844l0.06047,-0.05375l0.06047,-0.06047l2.62703,-2.50609l0.06047,-0.05375l0.05375,-0.06047l2.50609,-2.62703l0.06047,-0.06047l0.05375,-0.06047l0.5039,-0.58453zM32.34406,134.35485l-5.20031,4.50828l0.23516,0.27547l0.05375,0.06047l0.06047,0.06047l2.50609,2.62703l0.05375,0.06047l0.06047,0.05375l2.62703,2.50609l0.06047,0.06047l0.06047,0.05375l2.74797,2.37844l0.06047,0.05375l0.06719,0.04703l2.85547,2.25078l0.06719,0.04703l0.06719,0.04703l1.87453,1.33703l3.99094,-5.60344l-1.74688,-1.23625l-0.06719,-0.05375l-0.06719,-0.04703l-2.6875,-2.1164l-0.04031,-0.0336l-2.49265,-2.16344l-0.0336,-0.02688l-2.47922,-2.35828l-0.06047,-0.06047l-0.06047,-0.06047l-2.34484,-2.4725l-0.04031,-0.04031zM119.37203,150.06328l-1.98203,1.02125l-0.0336,0.01344l-3.31234,1.49828l-3.28547,1.29l-3.19141,1.08172l-0.05375,0.01344l-3.52734,1.0011l1.87453,6.61797l3.58109,-1.01453l0.08735,-0.02015l0.08062,-0.02688l3.51391,-1.19594l0.08062,-0.02687l0.08063,-0.02688l3.43328,-1.35719l0.08062,-0.02688l0.0739,-0.04031l3.35266,-1.51172l0.08062,-0.0336l0.07391,-0.04031l2.12984,-1.08844zM52.99078,150.2514l-3.13765,6.12078l1.76703,0.90703l0.07391,0.04031l0.08062,0.0336l3.35266,1.51172l0.0739,0.04031l0.08062,0.02688l3.43328,1.35719l0.08063,0.02688l0.08062,0.02687l3.51391,1.19594l0.08062,0.02688l0.08735,0.02015l3.58781,1.02125l0.08062,0.02016l0.08735,0.02015l0.38297,0.08735l1.54531,-6.6986l-0.36281,-0.08735l-0.02016,-0.00672l-3.37281,-0.96078l-0.05375,-0.01344l-3.19141,-1.08172l-3.28547,-1.29l-3.31234,-1.49828l-0.0336,-0.01344zM94.3514,157.74281l-0.87344,0.11422l-0.04703,0.00672l-3.74906,0.28219l-0.04703,0.00672l-3.63485,0.08735l-3.63485,-0.08735l-0.04703,-0.00672l-3.7625,-0.2889h-0.0336l-0.47031,-0.06047l-0.86672,6.82625l0.645,0.08062l0.08735,0.00672l0.08734,0.00672l3.84313,0.29563l0.08062,0.00672h0.08735l3.89687,0.10078h0.08735h0.08735l3.89687,-0.10078h0.08735l0.08062,-0.00672l3.84313,-0.29563l0.08734,-0.00672l0.08735,-0.00672l1.04813,-0.13437z"></path></g><g id="subtracted-icon" fill="#000000" stroke="none"><path d="M89.98422,6.98078h0.08735l0.08062,0.00672l3.84313,0.29563l0.08734,0.00672l0.08735,0.00672l3.78937,0.48375l0.08735,0.00672l0.08063,0.02016l3.7289,0.66516l0.08735,0.01344l0.08062,0.02016l2.88235,0.66516l-1.54531,6.70531l-2.81515,-0.65172l-0.06719,-0.01344l-3.47359,-0.61812l-3.52735,-0.45016h-0.04031l-3.75578,-0.28891l-0.04703,-0.00672l-2.60688,-0.06047l0.16797,-6.88zM77.25219,14.30422l-2.2575,0.28891l-3.47359,0.61812l-0.06719,0.01344l-3.58109,0.83313h-0.01344l-3.37281,0.96078l-0.05375,0.01344l-3.21156,1.08844l-2.20375,-6.51719l3.37281,-1.14219l0.08062,-0.02687l0.08735,-0.02016l3.58781,-1.02125l0.08062,-0.02016l0.08735,-0.02016l3.66172,-0.84656l0.08062,-0.02016l0.08735,-0.01344l3.7289,-0.66516l0.08063,-0.02016l0.08735,-0.00672l2.34484,-0.29563zM116.71813,13.06797l0.08062,0.02688l0.0739,0.04031l3.35266,1.51172l0.08062,0.03359l0.07391,0.04031l3.25859,1.67297l0.08063,0.03359l0.06719,0.04703l3.17125,1.82078l0.0739,0.04031l0.06719,0.04703l3.07047,1.96859l0.06719,0.04031l0.0739,0.04703l0.75922,0.54422l-3.99094,5.60344l-0.62484,-0.44344l-0.01344,-0.01344l-3.02344,-1.935l-0.03359,-0.02016l-2.87563,-1.65953l-0.0739,-0.03359l-0.07391,-0.04703l-2.96969,-1.51844l-0.02687,-0.01344l-3.31906,-1.49828l-1.35719,-0.53078l2.52625,-6.40297zM52.26515,22.11813l-0.62484,0.31578l-0.07391,0.04031l-0.0739,0.04031l-2.87563,1.65953l-0.03359,0.02016l-3.01672,1.935l-0.02016,0.01344l-2.70094,1.91484l-0.06719,0.05375l-0.06719,0.04703l-2.6875,2.11641l-0.04031,0.03359l-1.19594,1.04141l-4.50156,-5.20031l1.32359,-1.14891l0.06047,-0.05375l0.06719,-0.04703l2.85547,-2.25078l0.13437,-0.09406l2.96297,-2.11641l0.0739,-0.04703l0.06719,-0.04031l3.07047,-1.96859l0.06719,-0.04703l0.0739,-0.04031l3.17125,-1.82078l0.06719,-0.04703l0.08063,-0.03359l0.77265,-0.39641zM141.88656,29.99922l0.06047,0.05375l0.05375,0.06047l2.50609,2.62703l0.06047,0.06047l0.05375,0.06047l2.37844,2.74797l0.05375,0.06047l0.04703,0.06719l2.25078,2.85547l0.04703,0.06719l0.04703,0.06719l1.74688,2.45235l-5.60344,3.98422l-1.6461,-2.31797l-0.05375,-0.06719l-0.04703,-0.06719l-2.1164,-2.6875l-0.0336,-0.04031l-2.16344,-2.49265l-0.02688,-0.0336l-2.35828,-2.47922l-0.06047,-0.06047l-0.06047,-0.06047l-2.26422,-2.15l4.75016,-4.97859zM31.81328,38.25656l-1.505,1.72672l-0.03359,0.04031l-2.11641,2.6875l-0.04703,0.06719l-0.05375,0.06719l-1.91484,2.70094l-0.01344,0.02016l-1.935,3.01672l-0.02016,0.03359l-1.65953,2.87563l-0.02688,0.06047l-0.04703,0.08735h-0.00672l-0.05375,-0.0336l-6.06031,-3.10406l0.07391,-0.14109l0.03359,-0.08063l0.04703,-0.06719l1.82078,-3.17125l0.04031,-0.0739l0.04703,-0.06719l1.96859,-3.07047l0.04031,-0.06719l0.04703,-0.0739l2.11641,-2.96297l0.09406,-0.13437l2.25078,-2.85547l0.04703,-0.06719l0.05375,-0.06047l1.6125,-1.86109zM157.27922,51.62015l0.04031,0.07391l0.0336,0.08062l1.51172,3.35266l0.04031,0.0739l0.02688,0.08062l1.35719,3.43328l0.02688,0.08063l0.02687,0.08062l1.19594,3.51391l0.02688,0.08062l0.02015,0.08735l1.02125,3.58781l0.02016,0.08062l0.02015,0.08735l0.2486,1.075l-6.70531,1.54531l-0.2486,-1.06156v-0.01344l-0.96078,-3.37281l-0.01344,-0.05375l-1.08172,-3.19141l-1.29,-3.28547l-1.49828,-3.31906l-0.01344,-0.02687l-0.51063,-0.99437l6.12078,-3.13094zM18.31531,60.72406l-0.20156,0.51734l-1.08172,3.19141l-0.01344,0.05375l-0.96078,3.37281v0.01344l-0.83313,3.58109l-0.01344,0.06719l-0.61812,3.46687l-0.19484,1.55875l-6.82625,-0.86672l0.20828,-1.63937l0.00672,-0.08735l0.02016,-0.08063l0.66516,-3.7289l0.01344,-0.08735l0.02016,-0.08062l0.84656,-3.66172l0.02016,-0.08735l0.02016,-0.08062l1.02125,-3.58781l0.02016,-0.08735l0.02687,-0.08062l1.19594,-3.51391l0.02688,-0.08062l0.02688,-0.08063l0.20828,-0.51734zM165.0125,81.84781l0.00672,0.08062v0.08735l0.10078,3.89687l-3.44,0.08735l3.44,0.08735l-0.10078,3.89687v0.08735l-0.00672,0.08062l-0.29563,3.84313l-0.00672,0.08734l-0.00672,0.08735l-0.48375,3.78937l-0.00672,0.08735l-0.02015,0.08063l-0.66516,3.7289l-0.01344,0.08735l-0.02015,0.08062l-0.41656,1.80063l-2.73887,-0.6312c-1.18334,-0.78629 -2.40905,-1.5133 -3.67282,-2.1767l0.1095,-0.47085l0.01344,-0.06719l0.61812,-3.47359l0.45016,-3.52735v-0.04031l0.2889,-3.75578l0.00672,-0.04703l0.08735,-3.63485l-0.08735,-3.63485l-0.00672,-0.04703l-0.28219,-3.73563l6.85985,-0.52406zM13.84734,89.63485l0.00672,0.04703l0.28891,3.75578v0.04031l0.45016,3.52735l0.61812,3.47359l0.01344,0.06719l0.49047,2.12312l-6.70531,1.55203l-0.50391,-2.19703l-0.02016,-0.08062l-0.01344,-0.08735l-0.66516,-3.7289l-0.02016,-0.08063l-0.00672,-0.08735l-0.48375,-3.78937l-0.00672,-0.08735l-0.00672,-0.08734l-0.29563,-3.84313l-0.00672,-0.08062v-0.08735l-0.08734,-3.49375l6.87328,-0.17469zM19.40375,114.04406l1.49828,3.31906l0.01344,0.02687l1.51844,2.96969l0.04703,0.07391l0.03359,0.0739l1.65953,2.87563l0.02016,0.03359l1.94172,3.03015l0.00672,0.00672l0.03359,0.04703l-5.60344,3.99094l-0.13438,-0.18141l-0.04703,-0.0739l-0.04031,-0.06719l-1.96859,-3.07047l-0.04703,-0.06719l-0.04031,-0.0739l-1.82078,-3.17125l-0.04703,-0.06719l-0.03359,-0.08063l-1.67297,-3.25859l-0.04031,-0.07391l-0.03359,-0.08062l-1.51172,-3.35266l-0.04031,-0.0739l-0.02688,-0.08062l-0.85328,-2.16344l6.39625,-2.51953zM32.47172,134.50937l0.04031,0.04031l2.34484,2.4725l0.06047,0.06047l0.06047,0.06047l2.47922,2.35828l0.0336,0.02688l2.49265,2.16344l0.04031,0.0336l2.6875,2.1164l0.06719,0.04703l0.06719,0.05375l1.74688,1.23625l-3.99094,5.60344l-1.87453,-1.33703l-0.06719,-0.04703l-0.06719,-0.04703l-2.85547,-2.25078l-0.06719,-0.04703l-0.06047,-0.05375l-2.74797,-2.37844l-0.06047,-0.05375l-0.06047,-0.06047l-2.62703,-2.50609l-0.06047,-0.05375l-0.05375,-0.06047l-2.50609,-2.62703l-0.06047,-0.06047l-0.05375,-0.06047l-0.23516,-0.27547l5.20031,-4.50828zM54.61,151.08453l0.0336,0.01344l3.31234,1.49828l3.28547,1.29l3.19141,1.08172l0.05375,0.01344l3.37281,0.96078l0.02016,0.00672l0.36281,0.08735l-1.54531,6.6986l-0.38297,-0.08735l-0.08735,-0.02015l-0.08062,-0.02016l-3.58781,-1.02125l-0.08735,-0.02015l-0.08062,-0.02688l-3.51391,-1.19594l-0.08062,-0.02687l-0.08063,-0.02688l-3.43328,-1.35719l-0.08062,-0.02688l-0.0739,-0.04031l-3.35266,-1.51172l-0.08062,-0.0336l-0.07391,-0.04031l-1.76703,-0.90703l3.13765,-6.12078zM95.21813,164.56906l-1.04813,0.13437l-0.08735,0.00672l-0.08734,0.00672l-3.84313,0.29563l-0.08062,0.00672h-0.08735l-3.89687,0.10078h-0.17469l-3.89687,-0.10078h-0.08735l-0.08062,-0.00672l-3.84313,-0.29563l-0.08734,-0.00672l-0.08735,-0.00672l-0.645,-0.08062l0.86672,-6.82625l0.47031,0.06047h0.0336l3.7625,0.2889l0.04703,0.00672l3.63485,0.08735l3.63485,-0.08735l0.04703,-0.00672l3.74906,-0.28219l0.04703,-0.00672l0.87344,-0.11422z"></path></g><g fill="#000000" stroke="none"><g><g id="IOS_copy"><path d="M157.896,137.6c0,2.064 -1.376,3.44 -3.44,3.44h-13.416v13.416c0,2.064 -1.376,3.44 -3.44,3.44c-2.064,0 -3.44,-1.376 -3.44,-3.44v-13.416h-13.416c-2.064,0 -3.44,-1.376 -3.44,-3.44c0,-2.064 1.376,-3.44 3.44,-3.44h13.416v-13.416c0,-2.064 1.376,-3.44 3.44,-3.44c2.064,0 3.44,1.376 3.44,3.44v13.416h13.416c2.064,0 3.44,1.376 3.44,3.44zM172,137.6c0,18.92 -15.48,34.4 -34.4,34.4c-18.92,0 -34.4,-15.48 -34.4,-34.4c0,-18.92 15.48,-34.4 34.4,-34.4c18.92,0 34.4,15.48 34.4,34.4zM165.12,137.6c0,-15.136 -12.384,-27.52 -27.52,-27.52c-15.136,0 -27.52,12.384 -27.52,27.52c0,15.136 12.384,27.52 27.52,27.52c15.136,0 27.52,-12.384 27.52,-27.52z"></path></g></g><g opacity="0"><g id="IOS_copy"><path d="M137.6,96.32c-22.704,0 -41.28,18.576 -41.28,41.28c0,22.704 18.576,41.28 41.28,41.28c22.704,0 41.28,-18.576 41.28,-41.28c0,-22.704 -18.576,-41.28 -41.28,-41.28z"></path></g></g></g><path d="M103.2,172v-68.8h68.8v68.8z" id="overlay-drag" fill="#ff0000" stroke="none" opacity="0"></path></svg>