<?xml version="1.0" encoding="utf-8"?>
<svg viewBox="0 0 500 500" width="500" height="500" xmlns="http://www.w3.org/2000/svg">
  <g transform="matrix(0, -1.062848, 1.067944, 0, 67.90361, 422.847534)" style="">
    <g xmlns="http://www.w3.org/2000/svg" id="XMLID_26_">
      <path id="XMLID_27_" d="M 150.17 332.786 C 150.521 333.136 150.889 333.469 151.273 333.783 C 151.442 333.921 151.62 334.041 151.793 334.171 C 152.011 334.335 152.225 334.504 152.452 334.655 C 152.664 334.797 152.884 334.92 153.101 335.05 C 153.303 335.171 153.501 335.298 153.709 335.409 C 153.933 335.529 154.162 335.63 154.39 335.737 C 154.605 335.839 154.817 335.947 155.038 336.038 C 155.261 336.13 155.488 336.205 155.714 336.285 C 155.949 336.37 156.182 336.46 156.423 336.533 C 156.649 336.601 156.879 336.652 157.108 336.709 C 157.354 336.771 157.597 336.84 157.847 336.89 C 158.11 336.942 158.375 336.973 158.641 337.011 C 158.86 337.042 159.076 337.084 159.299 337.106 C 159.791 337.154 160.285 337.181 160.779 337.181 C 161.273 337.181 161.767 337.155 162.259 337.106 C 162.484 337.084 162.703 337.042 162.926 337.01 C 163.188 336.973 163.45 336.942 163.71 336.89 C 163.965 336.84 164.213 336.769 164.464 336.706 C 164.687 336.649 164.912 336.601 165.133 336.534 C 165.379 336.459 165.616 336.367 165.857 336.281 C 166.078 336.201 166.301 336.129 166.519 336.039 C 166.744 335.946 166.959 335.837 167.178 335.733 C 167.403 335.627 167.63 335.527 167.85 335.409 C 168.06 335.297 168.258 335.17 168.461 335.048 C 168.678 334.918 168.898 334.796 169.109 334.654 C 169.331 334.506 169.54 334.34 169.752 334.181 C 169.931 334.047 170.114 333.923 170.288 333.781 C 170.653 333.481 171.002 333.164 171.337 332.832 C 171.353 332.816 171.37 332.804 171.386 332.788 L 241.388 262.79 C 247.246 256.932 247.246 247.435 241.388 241.577 C 235.531 235.719 226.033 235.72 220.175 241.576 L 175.779 285.969 L 175.779 82.184 C 175.779 73.9 169.063 67.184 160.779 67.184 C 152.495 67.184 145.779 73.9 145.779 82.184 L 145.779 285.969 L 101.387 241.578 C 95.529 235.72 86.031 235.72 80.174 241.578 C 74.316 247.436 74.316 256.933 80.174 262.791 L 150.17 332.786 Z" fill="#000000" style=""/>
      <path id="XMLID_28_" d="M 313.418 16.043 L 13.418 16.043 C 5.134 16.043 -1.582 22.759 -1.582 31.043 C -1.582 39.327 5.134 46.043 13.418 46.043 L 313.418 46.043 C 321.702 46.043 328.418 39.327 328.418 31.043 C 328.418 22.759 321.702 16.043 313.418 16.043 Z" fill="#000000"  style=""/>
    </g>
  </g>
</svg>