<?xml version="1.0" encoding="utf-8"?>
<svg viewBox="0 0 500 500" width="500" height="500" xmlns="http://www.w3.org/2000/svg">
  <path d="M 456.493 210.509 L 474.202 192.749 C 477.144 189.796 478.113 185.397 476.684 181.476 C 475.255 177.553 471.686 174.82 467.535 174.468 L 434.683 171.688 L 431.911 138.734 C 431.563 134.573 428.835 130.994 424.927 129.56 C 421.018 128.124 416.633 129.097 413.689 132.05 L 395.98 149.811 C 367.342 132.198 334.598 122.924 300.728 122.924 C 251.963 122.924 206.114 141.972 171.632 176.561 C 137.149 211.15 118.158 257.139 118.158 306.054 C 118.158 354.969 137.149 400.958 171.632 435.547 C 206.114 470.135 251.963 489.184 300.728 489.184 C 349.493 489.184 395.342 470.135 429.824 435.547 C 464.307 400.958 483.297 354.969 483.297 306.054 C 483.297 272.08 474.051 239.239 456.493 210.509 Z M 414.121 182.522 C 414.561 187.736 418.684 191.871 423.882 192.313 L 442.784 193.911 L 417.199 219.575 L 389.297 217.213 L 386.943 189.226 L 412.527 163.562 Z M 337.099 306.054 C 337.099 326.17 320.783 342.537 300.728 342.537 C 280.673 342.537 264.357 326.17 264.357 306.054 C 264.357 285.937 280.673 269.571 300.728 269.571 C 306.871 269.571 312.657 271.111 317.735 273.818 L 293.164 298.467 C 288.986 302.656 288.986 309.449 293.164 313.641 C 295.251 315.736 297.989 316.785 300.728 316.785 C 303.466 316.785 306.205 315.736 308.291 313.641 L 332.865 288.994 C 335.564 294.088 337.099 299.892 337.099 306.054 Z M 333.285 258.22 C 324.009 251.849 312.796 248.111 300.728 248.111 C 268.875 248.111 242.962 274.103 242.962 306.054 C 242.962 338.004 268.875 363.997 300.728 363.997 C 332.581 363.997 358.494 338.004 358.494 306.054 C 358.494 293.949 354.767 282.702 348.415 273.396 L 378.958 242.759 C 392.912 260.079 401.284 282.103 401.284 306.054 C 401.284 361.669 356.173 406.918 300.728 406.918 C 245.282 406.918 200.172 361.669 200.172 306.054 C 200.172 250.438 245.282 205.19 300.728 205.19 C 324.605 205.19 346.563 213.586 363.829 227.583 Z M 414.695 420.371 C 384.254 450.907 343.779 467.724 300.728 467.724 C 257.676 467.724 217.202 450.907 186.761 420.371 C 156.318 389.836 139.553 349.238 139.553 306.054 C 139.553 262.87 156.318 222.271 186.761 191.737 C 217.202 161.201 257.676 144.384 300.728 144.384 C 328.892 144.384 356.173 151.641 380.368 165.471 L 368.303 177.573 C 366.353 179.529 365.241 182.15 365.172 184.885 C 365.163 185.277 365.174 185.668 365.205 186.062 L 366.645 203.183 C 347.627 190.877 324.995 183.728 300.728 183.728 C 233.484 183.728 178.777 238.604 178.777 306.054 C 178.777 373.503 233.484 428.38 300.728 428.38 C 367.971 428.38 422.679 373.503 422.679 306.054 C 422.679 281.713 415.553 259.011 403.284 239.934 L 420.353 241.379 C 420.653 241.401 420.954 241.415 421.252 241.415 C 421.302 241.415 421.355 241.41 421.406 241.407 C 421.548 241.407 421.687 241.396 421.829 241.387 C 422.06 241.373 422.294 241.36 422.523 241.331 C 422.665 241.312 422.807 241.289 422.949 241.267 C 423.175 241.23 423.397 241.189 423.62 241.139 C 423.762 241.105 423.902 241.069 424.041 241.032 C 424.258 240.974 424.473 240.907 424.687 240.834 C 424.826 240.786 424.963 240.739 425.099 240.686 C 425.308 240.605 425.515 240.515 425.721 240.417 C 425.852 240.359 425.983 240.3 426.114 240.233 C 426.32 240.127 426.52 240.01 426.718 239.893 C 426.838 239.82 426.958 239.753 427.075 239.68 C 427.286 239.541 427.49 239.39 427.693 239.236 C 427.788 239.163 427.885 239.099 427.977 239.024 C 428.267 238.789 428.548 238.539 428.816 238.272 L 440.881 226.17 C 454.668 250.438 461.903 277.804 461.903 306.054 C 461.903 349.238 445.138 389.836 414.695 420.371 Z M 414.695 420.371" style=""/>
  <g transform="matrix(0.295171, 0, 0, 0.299997, 71.629272, 51.729607)" style="">
    <path d="M336.559,68.611L231.016,174.165l105.543,105.549c15.699,15.705,15.699,41.145,0,56.85 c-7.844,7.844-18.128,11.769-28.407,11.769c-10.296,0-20.581-3.919-28.419-11.769L174.167,231.003L68.609,336.563 c-7.843,7.844-18.128,11.769-28.416,11.769c-10.285,0-20.563-3.919-28.413-11.769c-15.699-15.698-15.699-41.139,0-56.85 l105.54-105.549L11.774,68.611c-15.699-15.699-15.699-41.145,0-56.844c15.696-15.687,41.127-15.687,56.829,0l105.563,105.554 L279.721,11.767c15.705-15.687,41.139-15.687,56.832,0C352.258,27.466,352.258,52.912,336.559,68.611z"/>
  </g>
  <g transform="matrix(0.364367, 0, 0, 0.369193, 37.997002, 26.50527)" style=""/>
  <g transform="matrix(0.364367, 0, 0, 0.369193, 37.997002, 26.50527)" style=""/>
  <g transform="matrix(0.364367, 0, 0, 0.369193, 37.997002, 26.50527)" style=""/>
  <g transform="matrix(0.364367, 0, 0, 0.369193, 37.997002, 26.50527)" style=""/>
  <g transform="matrix(0.364367, 0, 0, 0.369193, 37.997002, 26.50527)" style=""/>
  <g transform="matrix(0.364367, 0, 0, 0.369193, 37.997002, 26.50527)" style=""/>
  <g transform="matrix(0.364367, 0, 0, 0.369193, 37.997002, 26.50527)" style=""/>
  <g transform="matrix(0.364367, 0, 0, 0.369193, 37.997002, 26.50527)" style=""/>
  <g transform="matrix(0.364367, 0, 0, 0.369193, 37.997002, 26.50527)" style=""/>
  <g transform="matrix(0.364367, 0, 0, 0.369193, 37.997002, 26.50527)" style=""/>
  <g transform="matrix(0.364367, 0, 0, 0.369193, 37.997002, 26.50527)" style=""/>
  <g transform="matrix(0.364367, 0, 0, 0.369193, 37.997002, 26.50527)" style=""/>
  <g transform="matrix(0.364367, 0, 0, 0.369193, 37.997002, 26.50527)" style=""/>
  <g transform="matrix(0.364367, 0, 0, 0.369193, 37.997002, 26.50527)" style=""/>
  <g transform="matrix(0.364367, 0, 0, 0.369193, 37.997002, 26.50527)" style=""/>
</svg>