<svg width="512" height="512" xmlns="http://www.w3.org/2000/svg" xml:space="preserve" version="1.1">
  <g  transform="matrix(0 -0.836778 0.824739 0 -7.57401 578.002)">
       <path fill="#f65060" d="m199.99788,47.1112l-37.36933,38.88792l37.36933,38.88608c5.5585,5.78599 5.5585,15.15853 0,20.94452c-2.7773,2.88987 -6.41853,4.3359 -10.05799,4.3359c-3.64548,0 -7.28706,-1.44383 -10.06224,-4.3359l-37.37747,-38.8905l-37.37464,38.89013c-2.77695,2.88987 -6.41853,4.3359 -10.06118,4.3359c-3.64158,0 -7.28069,-1.44383 -10.06011,-4.3359c-5.5585,-5.78341 -5.5585,-15.15632 0,-20.94452l37.36826,-38.88608l-37.37039,-38.88755c-5.5585,-5.78378 -5.5585,-15.15853 0,-20.94231c5.55744,-5.77936 14.56173,-5.77936 20.12129,0l37.37641,38.88792l37.37357,-38.88792c5.56063,-5.77936 14.56597,-5.77936 20.12235,0c5.56063,5.78378 5.56063,15.15853 0.00212,20.94231z"/>
   <path fill="#f65060" d="m575.59912,450.29969l0,-52.304c0,-27.619 -22.468,-50.087 -50.087,-50.087l-133.565,0l0,-45.855c56.544,-8.145 100.174,-56.777 100.174,-115.536c0,-64.441 -52.425,-116.87 -116.87,-116.87s-116.87,52.429 -116.87,116.87c0,58.759 43.63,107.391 100.174,115.536l0,45.855l-133.565,0c-27.619,0 -50.087,22.468 -50.087,50.087l0,52.304c-28.753,7.444 -50.087,33.516 -50.087,64.565c0,36.827 29.957,66.783 66.783,66.783s66.783,-29.956 66.783,-66.783c0,-31.049 -21.334,-57.121 -50.087,-64.565l0,-52.304c0,-9.206 7.49,-16.696 16.696,-16.696l133.565,0l0,68.98c-28.758,7.442 -50.087,33.533 -50.087,64.586c-0.001,36.826 29.956,66.782 66.782,66.782s66.783,-29.956 66.783,-66.783c0,-31.053 -21.329,-57.143 -50.087,-64.586l0,-68.98l133.565,0c9.206,0 16.696,7.49 16.696,16.696l0,52.304c-28.753,7.445 -50.087,33.516 -50.087,64.565c0,36.826 29.956,66.783 66.783,66.783s66.783,-29.956 66.783,-66.783c-0.001,-31.048 -21.335,-57.12 -50.088,-64.564z"/>
 </g>
</svg>