<?xml version="1.0" encoding="utf-8"?>
<svg viewBox="0 0 500 500" width="500" height="500" xmlns="http://www.w3.org/2000/svg">
  <g transform="matrix(0, -0.813106, 0.810599, 0, 35.199558, 476.933533)" style="">
    <g xmlns="http://www.w3.org/2000/svg">
      <g>
        <path d="M456.348,380.652v-52.304c0-27.619-22.468-50.087-50.087-50.087H272.696v-45.855    c56.544-8.145,100.174-56.777,100.174-115.536C372.87,52.429,320.445,0,256,0S139.13,52.429,139.13,116.87    c0,58.759,43.63,107.391,100.174,115.536v45.855H105.739c-27.619,0-50.087,22.468-50.087,50.087v52.304    c-28.753,7.444-50.087,33.516-50.087,64.565C5.565,482.044,35.522,512,72.348,512s66.783-29.956,66.783-66.783    c0-31.049-21.334-57.121-50.087-64.565v-52.304c0-9.206,7.49-16.696,16.696-16.696h133.565v68.98    c-28.758,7.442-50.087,33.533-50.087,64.586C189.217,482.044,219.174,512,256,512s66.783-29.956,66.783-66.783    c0-31.053-21.329-57.143-50.087-64.586v-68.98h133.565c9.206,0,16.696,7.49,16.696,16.696v52.304    c-28.753,7.445-50.087,33.516-50.087,64.565c0,36.826,29.956,66.783,66.783,66.783s66.783-29.956,66.783-66.783    C506.435,414.168,485.101,388.096,456.348,380.652z" fill="#000000" data-original="#000000" style="" class=""/>
      </g>
    </g>
  </g>
  <g transform="matrix(0.399768, 0, 0, 0.391722, 59.297459, 18.09717)" style="">
    <path d="M336.559,68.611L231.016,174.165l105.543,105.549c15.699,15.705,15.699,41.145,0,56.85 c-7.844,7.844-18.128,11.769-28.407,11.769c-10.296,0-20.581-3.919-28.419-11.769L174.167,231.003L68.609,336.563 c-7.843,7.844-18.128,11.769-28.416,11.769c-10.285,0-20.563-3.919-28.413-11.769c-15.699-15.698-15.699-41.139,0-56.85 l105.54-105.549L11.774,68.611c-15.699-15.699-15.699-41.145,0-56.844c15.696-15.687,41.127-15.687,56.829,0l105.563,105.554 L279.721,11.767c15.705-15.687,41.139-15.687,56.832,0C352.258,27.466,352.258,52.912,336.559,68.611z"/>
  </g>
  <g transform="matrix(0.377239, 0, 0, 0.37563, 62.100143, 11.370741)" style=""/>
  <g transform="matrix(0.377239, 0, 0, 0.37563, 62.100143, 11.370741)" style=""/>
  <g transform="matrix(0.377239, 0, 0, 0.37563, 62.100143, 11.370741)" style=""/>
  <g transform="matrix(0.377239, 0, 0, 0.37563, 62.100143, 11.370741)" style=""/>
  <g transform="matrix(0.377239, 0, 0, 0.37563, 62.100143, 11.370741)" style=""/>
  <g transform="matrix(0.377239, 0, 0, 0.37563, 62.100143, 11.370741)" style=""/>
  <g transform="matrix(0.377239, 0, 0, 0.37563, 62.100143, 11.370741)" style=""/>
  <g transform="matrix(0.377239, 0, 0, 0.37563, 62.100143, 11.370741)" style=""/>
  <g transform="matrix(0.377239, 0, 0, 0.37563, 62.100143, 11.370741)" style=""/>
  <g transform="matrix(0.377239, 0, 0, 0.37563, 62.100143, 11.370741)" style=""/>
  <g transform="matrix(0.377239, 0, 0, 0.37563, 62.100143, 11.370741)" style=""/>
  <g transform="matrix(0.377239, 0, 0, 0.37563, 62.100143, 11.370741)" style=""/>
  <g transform="matrix(0.377239, 0, 0, 0.37563, 62.100143, 11.370741)" style=""/>
  <g transform="matrix(0.377239, 0, 0, 0.37563, 62.100143, 11.370741)" style=""/>
  <g transform="matrix(0.377239, 0, 0, 0.37563, 62.100143, 11.370741)" style=""/>
</svg>