<?xml version="1.0" encoding="utf-8"?>
<svg viewBox="0 0 500 500" width="500" height="500" xmlns="http://www.w3.org/2000/svg">
  <g transform="matrix(0.610149, 0, 0, 0.682507, 103.58474, 96.578491)" style="">
    <g>
      <path d="M352,213.333H160c-11.776,0-21.333,9.536-21.333,21.333c0,11.797,9.557,21.333,21.333,21.333h192 c11.776,0,21.333-9.536,21.333-21.333C373.333,222.869,363.776,213.333,352,213.333z"/>
    </g>
  </g>
  <g transform="matrix(0.610149, 0, 0, 0.682507, 103.58474, 96.578491)" style="">
    <g>
      <path d="M352,320H160c-11.776,0-21.333,9.536-21.333,21.333c0,11.797,9.557,21.333,21.333,21.333h192 c11.776,0,21.333-9.536,21.333-21.333C373.333,329.536,363.776,320,352,320z"/>
    </g>
  </g>
  <g transform="matrix(0.610149, 0, 0, 0.682507, 103.58474, 96.578491)" style="">
    <g>
      <path d="M394.667,64h-22.421c-5.227-36.096-36.075-64-73.579-64h-85.333c-37.504,0-68.352,27.904-73.579,64h-22.421 c-35.285,0-64,28.715-64,64v320c0,35.285,28.715,64,64,64h277.333c35.285,0,64-28.715,64-64V128 C458.667,92.715,429.952,64,394.667,64z M213.333,42.667h85.333c17.643,0,32,14.357,32,32c0,17.643-14.357,32-32,32h-85.333 c-17.643,0-32-14.357-32-32C181.333,57.024,195.691,42.667,213.333,42.667z M416,448c0,11.776-9.579,21.333-21.333,21.333H117.333 C105.579,469.333,96,459.776,96,448V128c0-11.776,9.579-21.333,21.333-21.333h28.821c12.032,25.131,37.504,42.667,67.179,42.667 h85.333c29.675,0,55.147-17.536,67.179-42.667h28.821c11.755,0,21.333,9.557,21.333,21.333V448z"/>
    </g>
  </g>
  <g transform="matrix(0.610149, 0, 0, 0.682507, 85.086983, 84.80719)" style=""/>
  <g transform="matrix(0.610149, 0, 0, 0.682507, 85.086983, 84.80719)" style=""/>
  <g transform="matrix(0.610149, 0, 0, 0.682507, 85.086983, 84.80719)" style=""/>
  <g transform="matrix(0.610149, 0, 0, 0.682507, 85.086983, 84.80719)" style=""/>
  <g transform="matrix(0.610149, 0, 0, 0.682507, 85.086983, 84.80719)" style=""/>
  <g transform="matrix(0.610149, 0, 0, 0.682507, 85.086983, 84.80719)" style=""/>
  <g transform="matrix(0.610149, 0, 0, 0.682507, 85.086983, 84.80719)" style=""/>
  <g transform="matrix(0.610149, 0, 0, 0.682507, 85.086983, 84.80719)" style=""/>
  <g transform="matrix(0.610149, 0, 0, 0.682507, 85.086983, 84.80719)" style=""/>
  <g transform="matrix(0.610149, 0, 0, 0.682507, 85.086983, 84.80719)" style=""/>
  <g transform="matrix(0.610149, 0, 0, 0.682507, 85.086983, 84.80719)" style=""/>
  <g transform="matrix(0.610149, 0, 0, 0.682507, 85.086983, 84.80719)" style=""/>
  <g transform="matrix(0.610149, 0, 0, 0.682507, 85.086983, 84.80719)" style=""/>
  <g transform="matrix(0.610149, 0, 0, 0.682507, 85.086983, 84.80719)" style=""/>
  <g transform="matrix(0.610149, 0, 0, 0.682507, 85.086983, 84.80719)" style=""/>
  <g transform="matrix(0.303216, 0, 0, 0.322526, 77.795197, 11.931278)" style="">
    <path d="M336.559,68.611L231.016,174.165l105.543,105.549c15.699,15.705,15.699,41.145,0,56.85 c-7.844,7.844-18.128,11.769-28.407,11.769c-10.296,0-20.581-3.919-28.419-11.769L174.167,231.003L68.609,336.563 c-7.843,7.844-18.128,11.769-28.416,11.769c-10.285,0-20.563-3.919-28.413-11.769c-15.699-15.698-15.699-41.139,0-56.85 l105.54-105.549L11.774,68.611c-15.699-15.699-15.699-41.145,0-56.844c15.696-15.687,41.127-15.687,56.829,0l105.563,105.554 L279.721,11.767c15.705-15.687,41.139-15.687,56.832,0C352.258,27.466,352.258,52.912,336.559,68.611z"/>
  </g>
  <g transform="matrix(0.303216, 0, 0, 0.322526, 57.055283, 4.644283)" style=""/>
  <g transform="matrix(0.303216, 0, 0, 0.322526, 57.055283, 4.644283)" style=""/>
  <g transform="matrix(0.303216, 0, 0, 0.322526, 57.055283, 4.644283)" style=""/>
  <g transform="matrix(0.303216, 0, 0, 0.322526, 57.055283, 4.644283)" style=""/>
  <g transform="matrix(0.303216, 0, 0, 0.322526, 57.055283, 4.644283)" style=""/>
  <g transform="matrix(0.303216, 0, 0, 0.322526, 57.055283, 4.644283)" style=""/>
  <g transform="matrix(0.303216, 0, 0, 0.322526, 57.055283, 4.644283)" style=""/>
  <g transform="matrix(0.303216, 0, 0, 0.322526, 57.055283, 4.644283)" style=""/>
  <g transform="matrix(0.303216, 0, 0, 0.322526, 57.055283, 4.644283)" style=""/>
  <g transform="matrix(0.303216, 0, 0, 0.322526, 57.055283, 4.644283)" style=""/>
  <g transform="matrix(0.303216, 0, 0, 0.322526, 57.055283, 4.644283)" style=""/>
  <g transform="matrix(0.303216, 0, 0, 0.322526, 57.055283, 4.644283)" style=""/>
  <g transform="matrix(0.303216, 0, 0, 0.322526, 57.055283, 4.644283)" style=""/>
  <g transform="matrix(0.303216, 0, 0, 0.322526, 57.055283, 4.644283)" style=""/>
  <g transform="matrix(0.303216, 0, 0, 0.322526, 57.055283, 4.644283)" style=""/>
</svg>