<svg id="Capa_1" enable-background="new 0 0 512 512" height="512" viewBox="0 0 512 512" width="512" xmlns="http://www.w3.org/2000/svg"><path d="m56 301c-.011 0-.021 0-.033 0-8.284-.018-14.985-6.748-14.968-15.032.123-57.246 22.488-111.069 62.974-151.555 5.857-5.857 15.355-5.857 21.213 0s5.858 15.355 0 21.213c-34.836 34.837-54.08 81.149-54.186 130.406-.018 8.274-6.73 14.968-15 14.968z"/><path d="m456 301c-8.27 0-14.981-6.694-15-14.968-.106-49.257-19.35-95.569-54.187-130.406-5.858-5.857-5.858-15.355 0-21.213 5.857-5.857 15.355-5.857 21.213 0 40.486 40.485 62.851 94.309 62.974 151.555.018 8.284-6.684 15.015-14.968 15.032-.011 0-.022 0-.032 0z"/><path d="m256 501.467c-14.362 0-28.725-1.449-42.987-4.348-8.119-1.649-13.362-9.567-11.713-17.687 1.649-8.118 9.566-13.367 17.687-11.712 24.561 4.99 49.466 4.99 74.026 0 8.116-1.651 16.037 3.595 17.687 11.712 1.649 8.119-3.594 16.037-11.713 17.687-14.262 2.899-28.625 4.348-42.987 4.348z"/><path d="m232.846 356.577c-3.839 0-7.678-1.465-10.606-4.394l-26.846-26.846c-5.858-5.857-5.858-15.355 0-21.213 5.857-5.857 15.355-5.857 21.213 0l16.239 16.239 62.548-62.548c5.857-5.857 15.355-5.857 21.213 0s5.858 15.355 0 21.213l-73.154 73.154c-2.93 2.93-6.768 4.395-10.607 4.395z"/><circle cx="256" cy="40" r="40"/><path d="m279.802 110h-47.604c-18.364 0-34.369 12.504-38.812 30.323l-9.29 37.258c-1.573 6.31 3.2 12.419 9.703 12.419h124.401c6.503 0 11.276-6.109 9.703-12.419l-9.29-37.258c-4.442-17.819-20.447-30.323-38.811-30.323z"/><circle cx="72.205" cy="362" r="40"/><path d="m96.007 432h-47.604c-18.364 0-34.369 12.504-38.812 30.323l-9.29 37.258c-1.573 6.31 3.2 12.419 9.703 12.419h124.401c6.503 0 11.276-6.109 9.703-12.419l-9.29-37.258c-4.442-17.819-20.447-30.323-38.811-30.323z"/><circle cx="439.795" cy="362" r="40"/><path d="m463.597 432h-47.604c-18.364 0-34.369 12.504-38.812 30.323l-9.29 37.258c-1.573 6.31 3.2 12.419 9.703 12.419h124.401c6.503 0 11.276-6.109 9.703-12.419l-9.29-37.258c-4.442-17.819-20.447-30.323-38.811-30.323z"/></svg>