<?xml version="1.0" encoding="iso-8859-1"?>
<!-- Generator: Adobe Illustrator 19.0.0, SVG Export Plug-In . SVG Version: 6.00 Build 0)  -->
<svg version="1.1" id="Capa_1" xmlns="http://www.w3.org/2000/svg" xmlns:xlink="http://www.w3.org/1999/xlink" x="0px" y="0px"
	 viewBox="0 0 512 512" style="enable-background:new 0 0 512 512;" xml:space="preserve">
<g>
	<g>
		<path d="M256,0c-24.814,0-45,20.186-45,45c0,24.814,20.186,45,45,45c24.814,0,45-20.186,45-45S280.814,0,256,0z"/>
	</g>
</g>
<g>
	<g>
		<path d="M452,377h-30h-30c-31.319,0-57.086,24.11-59.756,54.746C309.623,444.867,282.729,451,256,451
			c-26.895,0-53.648-6.004-76.236-19.147C177.144,401.166,151.356,377,120,377H90H60c-33.091,0-60,26.909-60,60v60
			c0,8.291,6.709,15,15,15h150c8.291,0,15-6.709,15-15v-31.252C203.208,476.391,229.647,481,256,481
			c26.198,0,52.731-4.702,76-15.369V497c0,8.291,6.709,15,15,15h150c8.291,0,15-6.709,15-15v-60C512,403.909,485.091,377,452,377z"
			/>
	</g>
</g>
<g>
	<g>
		<path d="M436.532,289.421c-4.201-60.263-39.015-116.043-90.856-145.657C342.548,113.594,316.985,90,286,90h-30h-30
			c-30.979,0-56.538,23.586-59.674,53.747c-52.554,29.846-86.791,85.682-90.87,145.678C57.76,295.487,45,312.275,45,332
			c0,24.814,20.186,45,45,45c24.814,0,45-20.186,45-45c0-19.348-12.273-35.88-29.442-42.225
			c3.484-43.24,26.064-84.459,60.442-110.024V210c0,8.291,6.709,15,15,15h150c8.291,0,15-6.709,15-15v-30.178
			c34.01,25.444,56.902,66.603,60.449,109.95C389.276,296.116,377,312.649,377,332c0,24.814,20.186,45,45,45
			c24.814,0,45-20.186,45-45C467,312.27,454.234,295.479,436.532,289.421z"/>
	</g>
</g>
<g>
	<g>
		<path d="M311.605,275.394c-5.859-5.859-15.352-5.859-21.211,0L241,324.789l-19.395-19.395c-5.859-5.859-15.352-5.859-21.211,0
			c-5.859,5.859-5.859,15.352,0,21.211l30.001,30c2.93,2.93,6.768,4.395,10.605,4.395s7.676-1.465,10.605-4.395l60-60
			C317.464,290.746,317.464,281.253,311.605,275.394z"/>
	</g>
</g>
<g>
</g>
<g>
</g>
<g>
</g>
<g>
</g>
<g>
</g>
<g>
</g>
<g>
</g>
<g>
</g>
<g>
</g>
<g>
</g>
<g>
</g>
<g>
</g>
<g>
</g>
<g>
</g>
<g>
</g>
</svg>
